<svg xmlns="http://www.w3.org/2000/svg" width="21" height="20" viewBox="0 0 21 20" fill="none">
    <g clip-path="url(#clip0_127_266)">
        <path d="M3 5.25C3 3.84987 3 3.1498 3.27248 2.61502C3.51217 2.14462 3.89462 1.76217 4.36502 1.52248C4.8998 1.25 5.59987 1.25 7 1.25H14C15.4001 1.25 16.1002 1.25 16.635 1.52248C17.1054 1.76217 17.4878 2.14462 17.7275 2.61502C18 3.1498 18 3.84987 18 5.25V9.75C18 11.1501 18 11.8502 17.7275 12.385C17.4878 12.8554 17.1054 13.2378 16.635 13.4775C16.1002 13.75 15.4001 13.75 14 13.75H7C5.59987 13.75 4.8998 13.75 4.36502 13.4775C3.89462 13.2378 3.51217 12.8554 3.27248 12.385C3 11.8502 3 11.1501 3 9.75V5.25Z" stroke="currentcolor" stroke-width="2"/>
        <path d="M1.75 16.25C1.75 14.8693 2.86929 13.75 4.25 13.75H16.75C18.1307 13.75 19.25 14.8693 19.25 16.25C19.25 17.6307 18.1307 18.75 16.75 18.75H4.25C2.86929 18.75 1.75 17.6307 1.75 16.25Z" stroke="currentcolor" stroke-width="2"/>
    </g>
    <defs>
        <clipPath id="clip0_127_266">
            <rect width="20" height="20" fill="currentcolor" transform="translate(0.5)"/>
        </clipPath>
    </defs>
</svg>