<svg width="146" height="146" viewBox="0 0 146 146" fill="none" xmlns="http://www.w3.org/2000/svg">
<g clip-path="url(#clip0_101_1390)">
<path d="M137.079 0H8.92148C3.99428 0 0 3.99428 0 8.92148V137.079C0 142.006 3.99428 146 8.92148 146H137.079C142.006 146 146 142.006 146 137.079V8.92148C146 3.99428 142.006 0 137.079 0Z" fill="#203C8E"/>
<path d="M80.3973 88.5308C77.6019 90.2853 75.2972 92.5454 73.4683 95.2814C71.6394 92.5454 69.3347 90.2705 66.5393 88.5308C49.9305 78.1224 22.9281 91.0139 21.7832 91.5641L26.3183 100.932C32.6525 97.8537 51.2241 91.2221 61.008 97.3482C65.781 100.337 68.1898 106.493 68.1898 115.637H78.7171C78.7171 106.493 81.1259 100.337 85.8989 97.3482C95.6233 91.237 114.254 97.8537 120.603 100.917L125.139 91.5492C123.994 90.999 96.9913 78.1075 80.3825 88.5159L80.3973 88.5308Z" fill="white"/>
<path d="M80.3973 45.7969C77.6019 47.5514 75.2972 49.8115 73.4683 52.5475C71.6394 49.8115 69.3347 47.5366 66.5393 45.7969C49.9305 35.3885 22.9281 48.28 21.7832 48.8302L26.3183 58.1977C32.6525 55.1198 51.2241 48.4882 61.008 54.6143C65.781 57.603 68.1898 63.7588 68.1898 72.9033H78.7171C78.7171 63.7588 81.1259 57.603 85.8989 54.6143C95.6233 48.5031 114.254 55.1198 120.603 58.1829L125.139 48.8153C123.994 48.2652 96.9913 35.3736 80.3825 45.782L80.3973 45.7969Z" fill="white"/>
</g>
<defs>
<clipPath id="clip0_101_1390">
<rect width="146" height="146" rx="30" fill="white"/>
</clipPath>
</defs>
</svg>
